:FULLY-SPECIFIED
:FORCE-ALL-JOINTS-BE-3DOF
:DEGREES
170
root 6.29649 16.1638 -25.6475 3.01566 22.9745 0.696402
lfemur -17.4324 17.6115 -5.37633
ltibia 34.0066 -0 0
lfoot -8.67445 -8.37025 0.061981
ltoes 27.9831 -0 0
rfemur -30.5194 -14.7499 -0.909966
rtibia 67.3976 -0 0
rfoot -0.0467036 -12.2606 1.97888
rtoes 23.1837 -0 0
lowerback 1.75245 -4.16326 -1.86676
upperback 0.711628 -5.50401 -3.26891
thorax -0.159523 -2.78669 -2.05744
lowerneck -10.9217 -5.57851 0.473821
upperneck 2.09889 -7.77632 5.17235
head 2.77107 -3.66598 1.14213
lclavicle 2.3028e-14 2.42517e-14 -8.91926e-31
lhumerus -48.2507 -41.3386 109.765
lradius 51.2888 -0 0
lwrist 15.471 0 0
lhand 35.976 25.8447 0.126361
lfingers 7.12502 -0 0
lthumb 58.95 40.4219 0.0518397
rclavicle 2.3028e-14 2.42517e-14 -8.91926e-31
rhumerus -53.9842 2.71318 -85.7902
rradius 99.548 -0 0
rwrist -3.47141 0 0
rhand 10.2899 -10.1908 0.500207
rfingers 7.12502 -0 0
rthumb 35.3242 -36.0603 0.692228
171
root 6.24842 16.1545 -25.6239 3.26819 22.7153 0.809719
lfemur -17.4255 16.9255 -4.77295
ltibia 33.9413 -0 0
lfoot -8.70899 -9.90038 0.0587426
ltoes 27.3871 -0 0
rfemur -28.7938 -13.8003 -1.59493
rtibia 64.6846 -0 0
rfoot -1.60487 -13.347 1.87505
rtoes 25.0578 -0 0
lowerback 1.35389 -3.961 -1.71077
upperback 0.631462 -5.22472 -3.47793
thorax -0.0586672 -2.64518 -2.39734
lowerneck -10.9148 -5.68479 0.610662
upperneck 2.13224 -7.93878 5.19087
head 2.78005 -3.74382 1.11445
lclavicle 2.8741e-14 2.43842e-14 -8.45678e-31
lhumerus -48.7881 -41.5151 110.269
lradius 51.4368 -0 0
lwrist 15.7183 0 0
lhand 36.2415 26.249 0.119804
lfingers 7.12502 -0 0
lthumb 59.1805 40.6128 0.0491509
rclavicle 2.8741e-14 2.43842e-14 -8.45678e-31
rhumerus -54.023 4.12401 -86.5731
rradius 99.6892 -0 0
rwrist -3.23665 0 0
rhand 9.42673 -10.6837 0.474187
rfingers 7.12502 -0 0
rthumb 34.5091 -36.7829 0.656196
172
root 6.20036 16.1453 -25.6004 3.51968 22.4557 0.921586
lfemur -17.4262 16.2394 -4.17181
ltibia 33.8759 -0 0
lfoot -8.74344 -11.4305 0.0545829
ltoes 26.791 -0 0
rfemur -27.0867 -12.8312 -2.24754
rtibia 61.9716 -0 0
rfoot -3.16069 -14.4302 1.74176
rtoes 26.9319 -0 0
lowerback 0.955986 -3.75766 -1.55623
upperback 0.550308 -4.94572 -3.68725
thorax 0.0413356 -2.50308 -2.73694
lowerneck -10.9081 -5.79108 0.747515
upperneck 2.16555 -8.10126 5.20929
head 2.78907 -3.82165 1.08676
lclavicle 3.4454e-14 2.45168e-14 -7.86216e-31
lhumerus -49.3291 -41.688 110.777
lradius 51.5849 -0 0
lwrist 15.9657 0 0
lhand 36.5069 26.6532 0.111374
lfingers 7.12502 -0 0
lthumb 59.411 40.8037 0.045694
rclavicle 3.4454e-14 2.45168e-14 -7.86216e-31
rhumerus -54.0812 5.53417 -87.3585
rradius 99.8304 -0 0
rwrist -3.0019 0 0
rhand 8.56386 -11.1761 0.440746
rfingers 7.12502 -0 0
rthumb 33.6944 -37.5048 0.609891
173
root 6.15229 16.1361 -25.5769 3.77015 22.1956 1.03201
lfemur -17.4343 15.5535 -3.57271
ltibia 33.8106 -0 0
lfoot -8.77776 -12.9606 0.0495049
ltoes 26.195 -0 0
rfemur -25.3973 -11.8437 -2.86794
rtibia 59.2586 -0 0
rfoot -4.71359 -15.5092 1.57916
rtoes 28.806 -0 0
lowerback 0.55872 -3.55326 -1.40315
upperback 0.468166 -4.66701 -3.89688
thorax 0.140483 -2.36039 -3.07626
lowerneck -10.9017 -5.89739 0.884382
upperneck 2.19883 -8.26375 5.22764
head 2.79813 -3.89948 1.05906
lclavicle 4.0167e-14 2.46493e-14 -7.13541e-31
lhumerus -49.8735 -41.8573 111.288
lradius 51.733 -0 0
lwrist 16.2131 0 0
lhand 36.7722 27.0574 0.101073
lfingers 7.12502 -0 0
lthumb 59.6415 40.9946 0.0414692
rclavicle 4.0167e-14 2.46493e-14 -7.13541e-31
rhumerus -54.1591 6.94341 -88.1476
rradius 99.9717 -0 0
rwrist -2.76714 0 0
rhand 7.7013 -11.668 0.399894
rfingers 7.12502 -0 0
rthumb 32.8804 -38.2261 0.553331
